<?xml version="1.0" standalone="no"?>
<!DOCTYPE svg PUBLIC "-//W3C//DTD SVG 1.1//EN" "http://www.w3.org/Graphics/SVG/1.1/DTD/svg11.dtd" >
<svg xmlns="http://www.w3.org/2000/svg">
<metadata>Generated by IcoMoon</metadata>
<defs>
<font id="icomoon" horiz-adv-x="1024">
<font-face units-per-em="1024" ascent="960" descent="-64" />
<missing-glyph horiz-adv-x="1024" />
<glyph unicode="&#x20;" horiz-adv-x="512" d="" />
<glyph unicode="&#xe900;" glyph-name="add-new" d="M908.8 460.8h-358.4v358.4h-51.2v-358.4h-358.4v-51.2h358.4v-358.4h51.2v358.4h358.4z" />
<glyph unicode="&#xe901;" d="M942.293 436.779c0-237.653-192.64-430.293-430.293-430.293s-430.293 192.64-430.293 430.293 192.64 430.293 430.293 430.293 430.293-192.683 430.293-430.293z" />
<glyph unicode="&#xe902;" d="M617.899 592.256l-106.624-106.667-105.216 105.259c-13.355 13.269-34.901 13.269-48.256 0l-0.64-0.64c-13.312-13.312-13.312-34.901 0-48.256l105.216-105.216-105.216-105.216c-13.312-13.312-13.312-34.859 0-48.213l0.64-0.597c13.312-13.355 34.901-13.355 48.256 0l105.216 105.173 106.624-106.624c13.355-13.269 34.901-13.269 48.213 0l0.64 0.64c13.312 13.355 13.312 34.901 0 48.213l-106.667 106.667 106.667 106.667c13.312 13.312 13.312 34.901 0 48.213l-0.64 0.64c-13.269 13.355-34.859 13.355-48.213 0z" />
<glyph unicode="&#xe903;" d="M942.293 434.517c0-237.653-192.64-430.293-430.293-430.293s-430.293 192.64-430.293 430.293c0 237.653 192.64 430.293 430.293 430.293s430.293-192.683 430.293-430.293z" />
<glyph unicode="&#xe904;" d="M617.899 589.995l-106.624-106.667-105.216 105.259c-13.355 13.269-34.901 13.269-48.256 0l-0.64-0.64c-13.312-13.312-13.312-34.901 0-48.256l105.216-105.173-105.216-105.216c-13.312-13.312-13.312-34.859 0-48.213l0.64-0.597c13.312-13.355 34.901-13.355 48.256 0l105.216 105.173 106.624-106.667c13.355-13.269 34.901-13.269 48.213 0l0.64 0.64c13.312 13.312 13.312 34.901 0 48.213l-106.667 106.667 106.667 106.667c13.312 13.312 13.312 34.901 0 48.213l-0.64 0.64c-13.269 13.269-34.859 13.269-48.213-0.043z" />
<glyph unicode="&#xe905;" glyph-name="alert" d="M894.123 100.651h-764.203c-35.797 0-68.608 19.669-85.504 51.285s-15.019 69.803 4.907 99.627l382.080 571.264c18.048 26.965 48.171 43.051 80.597 43.051s62.592-16.085 80.597-43.051l382.080-571.264c19.925-29.824 21.803-68.011 4.907-99.627-16.853-31.659-49.664-51.328-85.504-51.328zM512 801.195c-10.837 0-20.864-5.376-26.923-14.379l-382.080-571.221c-6.613-9.941-7.253-22.656-1.664-33.195 5.675-10.539 16.597-17.109 28.501-17.109h764.203c11.947 0 22.869 6.571 28.501 17.109s4.992 23.253-1.664 33.195l-382.123 571.221c-6.016 9.003-16.085 14.379-26.88 14.379zM539.349 371.968h-54.741l-14.805 272.597h84.395l-14.805-272.597zM472.661 313.813h78.677v-81.024h-78.677v81.024z" />
<glyph unicode="&#xe906;" d="M942.293 459.733c0-237.653-192.64-430.293-430.293-430.293s-430.293 192.64-430.293 430.293 192.64 430.293 430.293 430.293 430.293-192.64 430.293-430.293z" />
<glyph unicode="&#xe907;" d="M505.515 238.763h68.053l-20.224 231.424h-82.773l-20.224-231.424z" />
<glyph unicode="&#xe908;" d="M440.917 609.664c0 39.253 31.872 71.040 71.040 71.040 39.253 0 71.040-31.787 71.040-71.040s-31.829-71.040-71.040-71.040c-39.211 0-71.040 31.787-71.040 71.040z" />
<glyph unicode="&#xe909;" d="M948.395 435.755c0-237.653-192.64-430.293-430.293-430.293s-430.293 192.64-430.293 430.293c0 237.653 192.64 430.293 430.293 430.293s430.293-192.64 430.293-430.293z" />
<glyph unicode="&#xe90a;" d="M511.616 214.741h68.096l-20.224 231.424h-82.773l-20.224-231.424z" />
<glyph unicode="&#xe90b;" d="M447.061 585.643c0 39.253 31.872 71.040 71.040 71.040 39.253 0 71.040-31.787 71.040-71.040s-31.829-71.040-71.040-71.040c-39.211-0.043-71.040 31.787-71.040 71.040z" />
<glyph unicode="&#xe90c;" d="M942.293 457.429c0-237.653-192.64-430.293-430.293-430.293s-430.293 192.683-430.293 430.293 192.64 430.293 430.293 430.293 430.293-192.64 430.293-430.293z" />
<glyph unicode="&#xe90d;" d="M450.731 257.109l-195.029 165.035 69.888 82.56 118.144-100.011 247.211 253.099 77.355-75.605z" />
<glyph unicode="&#xe90e;" d="M942.293 425.728c0-237.653-192.64-430.293-430.293-430.293s-430.293 192.64-430.293 430.293 192.64 430.293 430.293 430.293 430.293-192.64 430.293-430.293z" />
<glyph unicode="&#xe90f;" d="M450.731 225.408l-195.029 165.035 69.888 82.56 118.144-100.011 247.211 253.099 77.355-75.605z" />
<glyph unicode="&#xe910;" d="M81.707 446.336c0 237.653 192.64 430.293 430.293 430.293s430.293-192.64 430.293-430.293-192.64-430.293-430.293-430.293c-237.696 0-430.293 192.683-430.293 430.293z" />
<glyph unicode="&#xe911;" d="M518.485 667.349h-68.096l20.224-231.381h82.773l20.224 231.381z" />
<glyph unicode="&#xe912;" d="M583.040 296.448c0-39.253-31.872-71.040-71.040-71.040-39.253 0-71.040 31.787-71.040 71.040s31.829 71.040 71.040 71.040c39.211 0 71.040-31.787 71.040-71.040z" />
<glyph unicode="&#xe913;" d="M81.707 438.4c0 237.653 192.64 430.293 430.293 430.293s430.293-192.64 430.293-430.293-192.64-430.293-430.293-430.293c-237.696-0.043-430.293 192.64-430.293 430.293z" />
<glyph unicode="&#xe914;" d="M518.485 659.328h-68.096l20.224-231.381h82.773l20.224 231.381z" />
<glyph unicode="&#xe915;" d="M583.040 288.469c0-39.253-31.872-71.040-71.040-71.040-39.253 0-71.040 31.787-71.040 71.040s31.829 71.040 71.040 71.040c39.211 0.043 71.040-31.787 71.040-71.040z" />
<glyph unicode="&#xe916;" glyph-name="arrow-right" d="M320.725-20.395c-4.395 0-8.619 1.579-11.861 4.907-6.485 6.485-6.485 17.109 0 23.595l439.979 439.893-439.979 439.851c-6.485 6.485-6.485 17.067 0 23.595s17.109 6.528 23.637 0l463.445-463.445-463.445-463.531c-3.328-3.285-7.552-4.907-11.776-4.907z" />
<glyph unicode="&#xe917;" glyph-name="close" d="M512.64-9.984c-246.485 0-447.019 200.533-447.019 447.019s200.533 447.019 447.019 447.019 447.019-200.533 447.019-447.019c0-246.443-200.533-447.019-447.019-447.019zM512.64 850.645c-228.053 0-413.611-185.557-413.611-413.611s185.557-413.611 413.611-413.611c228.096 0 413.611 185.557 413.611 413.611s-185.515 413.611-413.611 413.611zM608.64 579.285l-93.227-93.227-91.989 91.947c-11.648 11.648-30.507 11.648-42.155 0l-0.597-0.512c-11.648-11.648-11.648-30.507 0-42.197l91.989-91.947-91.989-91.989c-11.648-11.648-11.648-30.507 0-42.197l0.597-0.555c11.605-11.605 30.507-11.605 42.155 0l91.989 92.032 93.227-93.269c11.648-11.648 30.549-11.648 42.197 0l0.555 0.555c11.605 11.605 11.605 30.507 0 42.155l-93.227 93.269 93.227 93.269c11.605 11.605 11.605 30.507 0 42.197l-0.555 0.512c-11.648 11.648-30.549 11.648-42.197 0z" />
<glyph unicode="&#xe918;" glyph-name="download" d="M506.611 200.084v0l393.432 382.653h-215.579v377.263h-355.705v-377.263h-220.968l398.821-382.653zM107.789 49.179h792.253v-107.789h-792.253v107.789z" />
<glyph unicode="&#xe919;" glyph-name="edit-circled" d="M510.208-5.291c-246.485 0-447.019 200.533-447.019 447.019s200.533 447.019 447.019 447.019 447.019-200.533 447.019-447.019c0-246.443-200.533-447.019-447.019-447.019zM510.208 855.339c-228.053 0-413.611-185.557-413.611-413.611s185.557-413.611 413.611-413.611c228.096 0 413.611 185.557 413.611 413.611s-185.515 413.611-413.611 413.611zM774.016 588.885l-142.080 131.157-298.411-323.328-42.624-188.715 184.747 57.557 298.368 323.328zM577.707 620.8l55.851 60.373 101.717-93.867-55.808-60.501-101.76 93.995zM337.835 291.371l16.384 72.533 86.997-80.341-70.997-22.144-32.384 29.909zM660.864 506.624l-193.621-209.707-101.76 93.952 193.579 209.664 101.803-93.952z" />
<glyph unicode="&#xe91a;" glyph-name="edit" d="M890.368 650.624l-230.613 212.821-484.267-524.629-69.205-306.261 299.776 93.397 484.309 524.672zM571.691 702.379l90.581 98.176 165.163-152.448-90.667-98.133-165.12 152.448zM182.485 167.808l26.581 117.803 141.227-130.389-115.243-35.925-52.565 48.512zM706.645 517.248l-314.155-340.352-165.163 152.491 314.112 340.309 165.163-152.448z" />
<glyph unicode="&#xe91b;" d="M942.293 448c0-237.653-192.64-430.293-430.293-430.293s-430.293 192.64-430.293 430.293 192.64 430.293 430.293 430.293 430.293-192.64 430.293-430.293z" />
<glyph unicode="&#xe91c;" d="M513.792 681.728c38.997 0 74.24-17.195 105.856-51.627 22.187-27.733 33.152-58.027 33.152-90.965 0-40.96-18.389-77.44-55.211-109.483-37.845-20.821-56.789-51.243-56.789-91.307-2.432-16.213-10.539-24.363-24.448-24.363-15.531 3.456-23.339 10.411-23.339 20.779v9.771c0 51.115 27.051 93.355 81.195 126.677 20.309 20.139 30.549 43.989 30.549 71.467 0 34.859-18.432 62.677-55.253 83.499-16.427 4.992-29.525 7.467-39.296 7.467-36.181 0-64.469-19.285-84.779-57.813l-8.789-41.899c-6.955-8.875-13.909-13.312-20.864-13.312-16.427 3.456-24.661 11.307-24.661 23.381 0 44.203 21.803 82.731 65.28 115.627 26.667 14.763 52.437 22.144 77.355 22.144zM512.469 280.576h5.205c14.251 0 24.491-9.003 30.507-26.965v-8.448c-3.925-20.608-15.403-30.891-34.432-30.891-21.205 4.523-31.829 15.189-31.829 31.872 0.043 18.816 10.155 30.336 30.507 34.475z" />
<glyph unicode="&#xe91d;" glyph-name="certified-doc" d="M894.639 703.879l-278.878 256.121h-481.576v-892.335h321.091v-123.81l96.216 82.796 98.547-82.796v123.81h244.601v636.214zM640.93 827.123l109.514-100.581h-109.514v100.581zM650.038 148.507v67.193c65.051 34.883 109.42 103.518 109.42 182.353 0 114.028-92.78 206.808-206.808 206.808-114.041 0-206.821-92.766-206.821-206.808 0-78.848 44.369-147.469 109.433-182.353v-67.193h-240.249v730.651h345.061v-233.459h253.709v-497.179l-163.746-0.013zM552.664 272.088c-69.457 0-125.979 56.509-125.979 125.979 0 69.457 56.509 125.965 125.979 125.965s125.965-56.509 125.965-125.965c-0.013-69.457-56.509-125.979-125.965-125.979v0z" />
<glyph unicode="&#xe91e;" glyph-name="download-alt" d="M31.539 960v-1020.245h963.243v1020.245h-963.243zM892.382 42.155h-758.443v815.445h756.463l1.98-156.979v-658.466zM581.41 354.526v383.932h-136.533v-381.525l-126.071 114.244-91.665-101.154 285.474-258.714 302.387 267.639-90.505 102.229-143.087-126.652z" />
<glyph unicode="&#xe91f;" glyph-name="search" d="M1013.131 14.758l-214.771 214.788c64.368 78.686 99.4 176.308 99.4 279.318-0.054 118.101-46.026 229.142-129.545 312.661-83.519 83.501-194.56 129.491-312.661 129.491-118.047 0-229.089-45.99-312.607-129.491-83.501-83.519-129.491-194.56-129.491-312.661s45.99-229.142 129.491-312.661c83.519-83.501 194.56-129.491 312.607-129.491 103.011 0 200.632 34.996 279.318 99.346l214.788-214.771 63.47 63.47zM206.417 259.692c-66.56 66.542-103.208 155.055-103.208 249.173s36.648 182.631 103.208 249.173c66.542 66.542 155.055 103.208 249.119 103.208 94.118 0 182.631-36.666 249.173-103.208s103.244-155.055 103.244-249.173c0-94.118-36.648-182.631-103.244-249.173-66.542-66.542-155.055-103.208-249.173-103.208-94.064-0.018-182.577 36.648-249.119 103.208v0z" />
<glyph unicode="&#xe920;" glyph-name="validated-doc" d="M625.526 960h-546.266v-1012.201h862.605v721.675l-316.34 290.526zM654.076 809.258l124.225-114.077h-124.225v114.077zM170.962 39.5v828.798h391.413v-264.819h287.79v-563.964l-679.202-0.015zM440.182 315.552l-91.778 93.291-87.162-85.771 170.794-173.576 336.331 280.714-78.359 93.887-249.825-208.544z" />
<glyph unicode="&#xe921;" d="M942.293 448c0-237.653-192.64-430.293-430.293-430.293s-430.293 192.64-430.293 430.293c0 237.653 192.64 430.293 430.293 430.293s430.293-192.683 430.293-430.293z" />
<glyph unicode="&#xe922;" d="M723.499 448c0-116.779-94.677-211.499-211.499-211.499s-211.499 94.677-211.499 211.499c0 116.779 94.677 211.499 211.499 211.499s211.499-94.677 211.499-211.499z" />
<glyph unicode="&#xe923;" glyph-name="progress-next" d="M942.293 448c0-237.653-192.64-430.293-430.293-430.293s-430.293 192.64-430.293 430.293 192.64 430.293 430.293 430.293 430.293-192.64 430.293-430.293z" />
<glyph unicode="&#xe924;" d="M942.293 442.112c0-237.653-192.64-430.293-430.293-430.293s-430.293 192.64-430.293 430.293 192.64 430.336 430.293 430.336c237.653-0.043 430.293-192.683 430.293-430.336z" />
<glyph unicode="&#xe925;" d="M450.688 241.749l-194.987 165.035 69.888 82.56 118.144-100.011 247.211 253.099 77.355-75.605z" />
<glyph unicode="&#xe926;" glyph-name="required" d="M473.771 410.197l3.371-12.373-176.085-200.149 88.064-68.395 123.691 231.68h13.525l123.563-235.179 91.477 73.771-179.541 186.069 5.077 13.995 252.288 54.485-42.325 117.589-223.531-121.131-11.819 10.453 30.507 261.589h-113.536l37.291-265.088-10.197-6.997-231.936 114.091-30.464-114.091z" />
<glyph unicode="&#xe927;" glyph-name="arrow-left" horiz-adv-x="559" d="M524.241-62.976c4.794 0 9.402 1.722 12.94 5.353 7.075 7.075 7.075 18.665 0 25.74l-479.977 479.884 479.977 479.837c7.075 7.075 7.075 18.618 0 25.74s-18.665 7.121-25.786 0l-505.577-505.577 505.577-505.67c3.631-3.584 8.239-5.353 12.847-5.353v0.047z" />
</font>
</defs>
</svg>
