<?xml version="1.0" encoding="UTF-8"?>
<!DOCTYPE svg PUBLIC "-//W3C//DTD SVG 1.0//EN" "http://www.w3.org/TR/2001/REC-SVG-20010904/DTD/svg10.dtd">

<svg xmlns="http://www.w3.org/2000/svg" xml:space="preserve" width="3603px" height="1065px" version="1.0" shape-rendering="geometricPrecision" text-rendering="geometricPrecision" image-rendering="optimizeQuality" fill-rule="evenodd" clip-rule="evenodd"
viewBox="0 0 3603 1065.12"
 xmlns:xlink="http://www.w3.org/1999/xlink">
 <g id="Capa_x0020_1">
  <g id="_105553696102816">
   <rect fill="#ED1C27" width="3603" height="1065.12"/>
   <g>
    <path fill="white" fill-rule="nonzero" d="M1737.33 482.21c-11.19,31.85 -49.57,120.76 -72.81,120.99 -23.27,0.23 -62.94,-87.92 -74.74,-119.54 -7.09,-18.97 -28.74,-5.19 -21.66,13.77 12.69,34.02 60.39,136.62 96.92,135.35 36.53,0.55 82.19,-102.97 94.23,-137.23 6.69,-19.09 -15.19,-32.45 -21.94,-13.34zm64.17 7.43c0,-20.4 -25.63,-20.29 -25.63,-0.33l0 128.66c0,19.29 25.64,20.01 25.64,0.72l-0.01 -129.05zm-418.34 58.47c-0.12,-1.2 -0.32,-2.34 -0.5,-3.5 -1.37,-7.49 -3.71,-14.27 -6.93,-20.36 -0.07,-0.14 -0.15,-0.25 -0.22,-0.39 -0.85,-1.57 -1.77,-3.07 -2.73,-4.55 -0.64,-0.99 -1.29,-1.94 -1.94,-2.85 -0.45,-0.62 -0.91,-1.22 -1.37,-1.83 -0.95,-1.23 -1.88,-2.39 -2.8,-3.46 -1.02,-1.17 -2.05,-2.34 -3.14,-3.44 -0.23,-0.24 -0.46,-0.48 -0.69,-0.7 -41.58,-41.09 -132.19,-36.89 -158.08,-25.98 -17.53,7.36 -11.47,29.08 7.71,20.6 31.19,-7.89 61.29,-7.74 92.08,0 25.14,6.31 51.49,28.31 51.49,51.94 -1.8,58.84 -79.64,61.17 -111.2,53.52l0 -73.2c0,-17.48 -22.49,-17.62 -22.49,-0.14l0 73.6c0,14.78 7.62,20.14 17.71,22.44 23.75,5.45 123.47,11.25 141.21,-59.61 0.35,-1.37 0.6,-2.69 0.86,-4.02 0.24,-1.2 0.5,-2.4 0.69,-3.65 0.67,-4.8 0.79,-9.37 0.43,-13.67 -0.04,-0.25 -0.06,-0.51 -0.09,-0.75zm105.89 -74.36c-39.55,-1.13 -90.58,101.64 -104.11,135.72 -7.59,19 15.89,32.68 23.49,13.67 12.56,-31.64 55.48,-119.95 80.65,-119.8 25.15,0.14 66.63,88.92 78.89,120.7 7.35,19.09 31,5.69 23.63,-13.41 -13.15,-34.22 -63.08,-137.56 -102.55,-136.88z"/>
    <path fill="white" fill-rule="nonzero" d="M2394.63 413.4c-19.94,-16.87 -53.9,-42.19 -63.93,-49.62 1.32,-15.44 4.06,-32.14 7.62,-46.36 4.11,-16.24 7.66,-30.27 0.02,-40.08 -5.15,-6.62 -14.17,-9.7 -28.35,-9.7l-52.97 0c-12.04,0 -20.79,3.48 -26,10.34 -3.91,5.14 -5.49,12 -4.67,19.79 -56.9,-31.01 -106.17,-49.37 -133.45,-49.53l-0.07 0c-29.32,0.17 -83.97,21.33 -146.19,56.58 -8.8,5.01 -62.59,36.75 -88.66,56.82 -0.43,0.31 -43.2,31.25 -66.88,51.13 -11.38,9.58 -19.7,18.45 -25.78,26.64l0.05 0.04c-0.93,1.13 -1.56,2.52 -1.56,4.09 0,3.61 2.93,6.54 6.53,6.54 2.02,0 3.76,-0.98 4.96,-2.42l0.06 0.06c0,0 1.84,-2.55 3.12,-4.27 5.47,-6.76 12.37,-13.74 20.86,-20.89 23.3,-19.57 65.71,-50.25 66.29,-50.68 25.65,-19.74 78.64,-51 87.32,-55.93 60.37,-34.21 112.67,-54.74 139.91,-54.92 27.22,0.18 79.5,20.71 139.87,54.92 2.22,1.25 4.95,1.08 6.98,-0.44 2.04,-1.52 2.98,-4.1 2.4,-6.57 -0.35,-1.5 -0.8,-3.05 -1.26,-4.6 -0.25,-0.86 -0.5,-1.7 -0.74,-2.59 -1.11,-3.99 -2.44,-11.38 1.09,-16.03 3.32,-4.37 10.44,-5.29 15.82,-5.29l52.97 0c9.51,0 15.82,1.65 18.25,4.77 3.81,4.88 0.83,16.64 -2.32,29.1 -4.01,16 -7.02,34.97 -8.25,52.06 -0.16,2.19 0.82,4.31 2.59,5.61 0.43,0.32 42.96,31.63 66.12,51.2 28.15,23.73 40.09,45.86 33.6,62.31 -7.18,18.24 -37.1,29.2 -74.42,27.35 -4.41,-0.21 -8.76,-0.43 -13.05,-0.65l-8.07 -0.41c-1.75,-0.08 -3.51,0.57 -4.78,1.81 -1.27,1.25 -1.97,2.96 -1.93,4.74 0.52,20.35 6.52,61.41 41.13,107.98 31.01,37.07 35.59,79.97 12.57,117.71 -27.51,45.1 -96.42,81.34 -188.38,60.65 -1.14,-0.27 -2.33,-0.2 -3.43,0.17 -25.09,8.36 -65.84,12.13 -86.76,12.13 -20.93,0 -61.66,-3.77 -86.7,-12.13 -0.66,-0.22 -1.34,-0.33 -2.03,-0.33 -0.47,0 -0.94,0.05 -1.41,0.15 -92.02,20.72 -160.95,-15.55 -188.46,-60.66 -14.96,-24.54 -18.12,-51.25 -10,-77.2 0,0 0.39,-1.4 0.27,-2.5 -0.01,-0.09 0.01,-0.27 -0.03,-0.35 -0.28,-2.69 -2.27,-4.82 -5.06,-5.39 -2.72,-0.54 -5.34,0.66 -6.68,2.92 -0.03,0.02 -0.07,0.13 -0.09,0.17 -0.74,1.17 -1.37,4.04 -1.37,4.04 -8.07,28.59 -4.23,58.28 12.04,84.96 24.05,39.45 76.73,72.78 147.56,72.77 16.68,0 34.36,-1.85 52.9,-5.9 27.89,8.9 69.18,12.24 89.06,12.24 19.88,0 61.17,-3.34 89.1,-12.24 97.28,21.25 170.67,-18.13 200.39,-66.84 25.68,-42.09 20.56,-91.65 -13.45,-132.29 -28.72,-38.66 -36.34,-73.09 -38.01,-93.48l0.97 0.05c4.31,0.22 8.67,0.45 13.08,0.65 43.45,2.16 77.6,-11.72 86.94,-35.44 6.12,-15.53 4.63,-41.46 -37.25,-76.76z"/>
    <path fill="white" fill-rule="nonzero" d="M1862.08 579.59c0,2.93 0.45,5.64 0.9,8.13 3.61,13.77 15.58,23.25 29.8,23.25 21,0 33.19,-17.16 33.19,-42.22 0,-21.9 -11.52,-40.64 -32.51,-40.64 -13.55,0 -26.19,9.71 -30.03,24.61 -0.67,2.48 -1.35,5.42 -1.35,8.13l0 18.74zm-19.64 -29.13c0,-13.99 -0.46,-25.28 -0.91,-35.67l17.84 0 0.9 18.74 0.45 0c8.13,-13.32 21,-21.22 38.83,-21.22 26.42,0 46.29,22.35 46.29,55.54 0,39.28 -23.94,58.7 -49.67,58.7 -14.45,0 -27.09,-6.33 -33.64,-17.16l-0.45 0 0 59.37 -19.64 0 0 -118.3z"/>
    <polygon fill="white" fill-rule="nonzero" points="1970.88,463.77 1990.75,463.77 1990.75,624.06 1970.88,624.06 "/>
    <path fill="white" fill-rule="nonzero" d="M2081.73 568.3c-21.68,-0.45 -46.28,3.39 -46.28,24.61 0,12.87 8.58,18.96 18.74,18.96 14.22,0 23.25,-9.03 26.41,-18.29 0.68,-2.03 1.13,-4.29 1.13,-6.32l0 -18.96zm2.93 55.76l-1.57 -13.77 -0.68 0c-6.1,8.58 -17.84,16.26 -33.41,16.26 -22.13,0 -33.42,-15.58 -33.42,-31.39 0,-26.41 23.48,-40.86 65.7,-40.63l0 -2.26c0,-9.03 -2.49,-25.28 -24.83,-25.28 -10.16,0 -20.77,3.15 -28.45,8.12l-4.51 -13.09c9.02,-5.87 22.12,-9.71 35.89,-9.71 33.41,0 41.54,22.8 41.54,44.7l0 40.87c0,9.48 0.45,18.73 1.81,26.18l-18.07 0z"/>
    <path fill="white" fill-rule="nonzero" d="M2156 483.41l0 31.38 28.45 0 0 15.13 -28.45 0 0 58.92c0,13.55 3.83,21.23 14.9,21.23 5.19,0 9.03,-0.68 11.51,-1.36l0.91 14.9c-3.84,1.58 -9.94,2.71 -17.61,2.71 -9.26,0 -16.71,-2.93 -21.45,-8.35 -5.64,-5.88 -7.68,-15.58 -7.68,-28.45l0 -59.6 -16.93 0 0 -15.13 16.93 0 0 -26.19 19.42 -5.19z"/>
    <path fill="white" fill-rule="nonzero" d="M2264.36 568.3c-21.67,-0.45 -46.28,3.39 -46.28,24.61 0,12.87 8.58,18.96 18.74,18.96 14.22,0 23.25,-9.03 26.41,-18.29 0.68,-2.03 1.13,-4.29 1.13,-6.32l0 -18.96zm2.94 55.76l-1.58 -13.77 -0.68 0c-6.1,8.58 -17.84,16.26 -33.41,16.26 -22.13,0 -33.41,-15.58 -33.41,-31.39 0,-26.41 23.47,-40.86 65.69,-40.63l0 -2.26c0,-9.03 -2.49,-25.28 -24.83,-25.28 -10.16,0 -20.77,3.15 -28.45,8.12l-4.52 -13.09c9.03,-5.87 22.13,-9.71 35.9,-9.71 33.41,0 41.54,22.8 41.54,44.7l0 40.87c0,9.48 0.45,18.73 1.81,26.18l-18.06 0z"/>
   </g>
  </g>
 </g>
</svg>
