<?xml version="1.0" encoding="UTF-8"?>
<!DOCTYPE svg PUBLIC "-//W3C//DTD SVG 1.0//EN" "http://www.w3.org/TR/2001/REC-SVG-20010904/DTD/svg10.dtd">
<!-- Creator: CorelDRAW -->
<svg xmlns="http://www.w3.org/2000/svg" xml:space="preserve" width="1615px" height="827px" version="1.0" shape-rendering="geometricPrecision" text-rendering="geometricPrecision" image-rendering="optimizeQuality" fill-rule="evenodd" clip-rule="evenodd"
viewBox="0 0 1615 826.59"
 xmlns:xlink="http://www.w3.org/1999/xlink"
 xmlns:xodm="http://www.corel.com/coreldraw/odm/2003">
 <g id="Capa_x0020_1">
  <metadata id="CorelCorpID_0Corel-Layer"/>
  <g id="Capa_x0020_1_0">
   <g id="_105553696102816">
    <rect fill="none" width="1615" height="826.59"/>
    <g>
     <path fill="#ED1C27" fill-rule="nonzero" d="M722 350.47c-12.67,36.05 -56.11,136.68 -82.41,136.94 -26.34,0.26 -71.24,-99.51 -84.59,-135.3 -8.03,-21.47 -32.53,-5.87 -24.52,15.59 14.36,38.5 68.35,154.63 109.7,153.19 41.34,0.63 93.02,-116.54 106.65,-155.32 7.57,-21.61 -17.19,-36.73 -24.83,-15.1l0 0zm72.63 8.41c0,-23.09 -29.01,-22.96 -29.01,-0.37l0 145.62c0,21.83 29.02,22.65 29.02,0.82l-0.01 -146.07 0 0zm-473.49 66.18c-0.14,-1.36 -0.37,-2.65 -0.57,-3.96 -1.55,-8.48 -4.2,-16.15 -7.84,-23.04 -0.08,-0.16 -0.17,-0.29 -0.25,-0.45 -0.96,-1.77 -2,-3.47 -3.09,-5.15 -0.73,-1.12 -1.46,-2.19 -2.2,-3.22 -0.51,-0.7 -1.03,-1.38 -1.55,-2.07 -1.07,-1.39 -2.12,-2.71 -3.17,-3.92 -1.15,-1.32 -2.32,-2.65 -3.55,-3.89 -0.26,-0.27 -0.52,-0.55 -0.78,-0.79 -47.06,-46.51 -149.62,-41.76 -178.92,-29.41 -19.84,8.33 -12.98,32.91 8.73,23.32 35.3,-8.93 69.37,-8.76 104.22,0 28.45,7.14 58.27,32.04 58.27,58.78 -2.03,66.6 -90.14,69.24 -125.86,60.58l0 -82.85c0,-19.78 -25.45,-19.94 -25.45,-0.16l0 83.3c0,16.73 8.62,22.8 20.04,25.4 26.88,6.17 139.75,12.73 159.83,-67.47 0.4,-1.55 0.68,-3.04 0.97,-4.55 0.27,-1.35 0.57,-2.71 0.78,-4.13 0.76,-5.43 0.9,-10.6 0.49,-15.47 -0.05,-0.28 -0.07,-0.58 -0.1,-0.85l0 0zm119.85 -84.16c-44.77,-1.28 -102.52,115.04 -117.84,153.61 -8.59,21.5 17.99,36.99 26.59,15.47 14.21,-35.81 62.79,-135.76 91.28,-135.59 28.47,0.16 75.41,100.64 89.29,136.61 8.32,21.61 35.09,6.44 26.75,-15.18 -14.89,-38.73 -71.4,-155.69 -116.07,-154.92l0 0z"/>
     <path fill="#ED1C27" fill-rule="nonzero" d="M1465.95 272.59c-22.57,-19.09 -61.01,-47.75 -72.36,-56.16 1.49,-17.47 4.59,-36.38 8.62,-52.47 4.65,-18.38 8.67,-34.26 0.02,-45.36 -5.82,-7.5 -16.03,-10.98 -32.08,-10.98l-59.95 0c-13.63,0 -23.54,3.94 -29.43,11.7 -4.43,5.82 -6.22,13.58 -5.29,22.4 -64.4,-35.1 -120.16,-55.88 -151.04,-56.06l-0.08 0c-33.19,0.19 -95.04,24.14 -165.46,64.04 -9.96,5.67 -70.84,41.59 -100.35,64.31 -0.49,0.35 -48.89,35.37 -75.7,57.87 -12.88,10.84 -22.29,20.88 -29.17,30.15l0.05 0.05c-1.05,1.28 -1.76,2.85 -1.76,4.63 0,4.08 3.31,7.4 7.39,7.4 2.28,0 4.25,-1.11 5.61,-2.74l0.07 0.07c0,0 2.08,-2.89 3.53,-4.84 6.19,-7.65 14,-15.55 23.61,-23.64 26.37,-22.15 74.37,-56.87 75.03,-57.36 29.03,-22.34 89.01,-57.72 98.83,-63.3 68.33,-38.72 127.52,-61.96 158.35,-62.16 30.81,0.2 89.98,23.44 158.31,62.16 2.52,1.41 5.6,1.22 7.9,-0.5 2.31,-1.72 3.38,-4.64 2.72,-7.44 -0.4,-1.7 -0.91,-3.45 -1.43,-5.2 -0.28,-0.98 -0.56,-1.93 -0.83,-2.94 -1.26,-4.51 -2.77,-12.88 1.23,-18.14 3.76,-4.94 11.82,-5.99 17.91,-5.99l59.95 0c10.76,0 17.9,1.87 20.65,5.4 4.32,5.53 0.94,18.84 -2.62,32.94 -4.54,18.11 -7.95,39.58 -9.34,58.92 -0.18,2.48 0.93,4.88 2.93,6.35 0.49,0.36 48.62,35.8 74.84,57.95 31.86,26.86 45.37,51.91 38.03,70.52 -8.13,20.65 -41.99,33.05 -84.23,30.96 -5,-0.24 -9.92,-0.49 -14.77,-0.74l-9.14 -0.46c-1.98,-0.09 -3.97,0.64 -5.41,2.05 -1.44,1.41 -2.23,3.35 -2.18,5.36 0.59,23.04 7.38,69.51 46.55,122.22 35.1,41.95 40.28,90.51 14.23,133.22 -31.14,51.05 -109.13,92.07 -213.22,68.65 -1.29,-0.3 -2.63,-0.23 -3.88,0.19 -28.4,9.46 -74.52,13.73 -98.2,13.73 -23.69,0 -69.78,-4.27 -98.13,-13.73 -0.74,-0.25 -1.51,-0.37 -2.29,-0.37 -0.54,0 -1.07,0.06 -1.6,0.17 -104.15,23.45 -182.17,-17.6 -213.3,-68.66 -16.94,-27.77 -20.51,-58 -11.32,-87.37 0,0 0.44,-1.59 0.3,-2.83 -0.01,-0.11 0.02,-0.31 -0.03,-0.4 -0.32,-3.04 -2.57,-5.46 -5.73,-6.1 -3.08,-0.61 -6.04,0.75 -7.56,3.3 -0.03,0.03 -0.08,0.15 -0.1,0.2 -0.84,1.32 -1.55,4.57 -1.55,4.57 -9.13,32.36 -4.79,65.96 13.63,96.16 27.22,44.65 86.84,82.37 167.01,82.36 18.88,0 38.89,-2.09 59.87,-6.67 31.57,10.07 78.3,13.85 100.8,13.85 22.5,0 69.24,-3.78 100.85,-13.85 110.1,24.05 193.17,-20.52 226.81,-75.66 29.06,-47.64 23.27,-103.73 -15.23,-149.73 -32.5,-43.75 -41.13,-82.72 -43.02,-105.8l1.1 0.06c4.88,0.25 9.81,0.51 14.81,0.73 49.17,2.45 87.83,-13.26 98.4,-40.11 6.92,-17.58 5.24,-46.92 -42.16,-86.88l0 0z"/>
     <path fill="#373535" fill-rule="nonzero" d="M863.19 460.69c0,3.32 0.51,6.38 1.02,9.2 4.09,15.59 17.63,26.32 33.73,26.32 23.77,0 37.56,-19.42 37.56,-47.79 0,-24.78 -13.03,-46 -36.79,-46 -15.34,0 -29.64,10.99 -33.99,27.86 -0.76,2.81 -1.53,6.13 -1.53,9.2l0 21.21 0 0zm-22.23 -32.97c0,-15.83 -0.52,-28.61 -1.03,-40.37l20.19 0 1.02 21.21 0.51 0c9.2,-15.08 23.77,-24.02 43.95,-24.02 29.9,0 52.39,25.3 52.39,62.86 0,44.46 -27.09,66.44 -56.22,66.44 -16.35,0 -30.66,-7.16 -38.07,-19.42l-0.51 0 0 67.2 -22.23 0 0 -133.9z"/>
     <polygon fill="#373535" fill-rule="nonzero" points="986.33,329.6 1008.82,329.6 1008.82,511.02 986.33,511.02 "/>
     <path fill="#373535" fill-rule="nonzero" d="M1111.8 447.91c-24.54,-0.51 -52.38,3.84 -52.38,27.86 0,14.56 9.71,21.46 21.21,21.46 16.09,0 26.31,-10.22 29.89,-20.71 0.77,-2.29 1.28,-4.85 1.28,-7.15l0 -21.46zm3.31 63.11l-1.77 -15.58 -0.77 0c-6.91,9.71 -20.19,18.4 -37.82,18.4 -25.04,0 -37.82,-17.63 -37.82,-35.53 0,-29.89 26.57,-46.24 74.36,-45.98l0 -2.56c0,-10.22 -2.82,-28.61 -28.1,-28.61 -11.5,0 -23.51,3.56 -32.2,9.19l-5.11 -14.82c10.21,-6.64 25.04,-10.99 40.62,-10.99 37.82,0 47.02,25.81 47.02,50.59l0 46.26c0,10.73 0.51,21.2 2.05,29.63l-20.46 0 0 0z"/>
     <path fill="#373535" fill-rule="nonzero" d="M1195.86 351.83l0 35.52 32.2 0 0 17.12 -32.2 0 0 66.69c0,15.34 4.33,24.03 16.86,24.03 5.88,0 10.22,-0.77 13.03,-1.54l1.03 16.86c-4.35,1.79 -11.25,3.07 -19.93,3.07 -10.48,0 -18.92,-3.32 -24.28,-9.45 -6.38,-6.66 -8.69,-17.63 -8.69,-32.2l0 -67.46 -19.17 0 0 -17.12 19.17 0 0 -29.64 21.98 -5.88 0 0z"/>
     <path fill="#373535" fill-rule="nonzero" d="M1318.5 447.91c-24.52,-0.51 -52.38,3.84 -52.38,27.86 0,14.56 9.71,21.46 21.21,21.46 16.1,0 26.32,-10.22 29.89,-20.71 0.77,-2.29 1.28,-4.85 1.28,-7.15l0 -21.46zm3.33 63.11l-1.79 -15.58 -0.77 0c-6.9,9.71 -20.19,18.4 -37.81,18.4 -25.05,0 -37.82,-17.63 -37.82,-35.53 0,-29.89 26.57,-46.24 74.35,-45.98l0 -2.56c0,-10.22 -2.82,-28.61 -28.1,-28.61 -11.5,0 -23.51,3.56 -32.2,9.19l-5.12 -14.82c10.22,-6.64 25.05,-10.99 40.64,-10.99 37.81,0 47.01,25.81 47.01,50.59l0 46.26c0,10.73 0.51,21.2 2.05,29.63l-20.44 0 0 0z"/>
    </g>
   </g>
  </g>
 </g>
</svg>
