<?xml version="1.0" encoding="UTF-8"?>
<!DOCTYPE svg  PUBLIC '-//W3C//DTD SVG 1.1//EN'  'http://www.w3.org/Graphics/SVG/1.1/DTD/svg11.dtd' [
	<!ENTITY ns_flows "http://ns.adobe.com/Flows/1.0/">
]>
<svg width="208px" height="70px" enable-background="new -2.998 0.136 208 70" overflow="visible" version="1.1" viewBox="-2.998 0.136 208 70" xml:space="preserve" xmlns="http://www.w3.org/2000/svg" xmlns:xlink="http://www.w3.org/1999/xlink">
	<defs>
		<rect id="ak" width="201.32" height="63.782"/>
	</defs>
	<clipPath id="aj">
		<use overflow="visible" xlink:href="#ak"/>
	</clipPath>
	<path d="m98.671 15.64c-1.405 0.687-2.798 1.031-4.188 1.031-2.371 0-4.296-0.748-5.785-2.248-1.489-1.493-2.233-3.422-2.233-5.79 0-2.348 0.693-4.283 2.074-5.803 1.381-1.518 3.241-2.281 5.574-2.281 1.435 0 2.938 0.355 4.512 1.056l-0.94 2.337c-1.357-0.599-2.565-0.894-3.617-0.894-1.436 0-2.565 0.542-3.391 1.624-0.762 0.978-1.142 2.207-1.142 3.688 0 1.739 0.439 3.126 1.325 4.167 0.951 1.099 2.275 1.647 3.987 1.647 1.039 0 2.069-0.245 3.091-0.734" clip-path="url(#aj)" fill="#231F20"/>
	<defs>
		<rect id="al" width="201.32" height="63.782"/>
	</defs>
	<clipPath id="ah">
		<use overflow="visible" xlink:href="#al"/>
	</clipPath>
	<path d="m109.34 15.802c-1.956 0.594-3.581 0.89-4.88 0.89-1.339 0-2.472-0.243-3.388-0.73-1.157-0.628-1.738-1.544-1.738-2.749 0-1.328 0.613-2.301 1.831-2.909 0.488-0.244 1.633-0.564 3.437-0.962 1.218-0.276 1.829-0.661 1.829-1.167 0-0.7-0.641-1.056-1.925-1.056-1.049 0-2.111 0.23-3.183 0.69l-0.939-2.086c1.438-0.655 2.941-0.984 4.515-0.984 1.297 0 2.319 0.29 3.065 0.873 0.809 0.638 1.217 1.595 1.217 2.863v5.885c-1e-3 0.29 0.05 0.77 0.159 1.442m-2.861-1.719c-0.036-0.199-0.049-0.344-0.049-0.435v-2.817c-0.23 0.232-0.717 0.429-1.467 0.597-0.928 0.215-1.517 0.371-1.76 0.479-0.567 0.262-0.848 0.626-0.848 1.101 0 0.93 0.708 1.392 2.128 1.392 0.659 0 1.322-0.104 1.996-0.317m0.34-12.823c0 0.336-0.146 0.603-0.434 0.804l-2.794 1.877-0.985-1.146 2.223-2.452c0.21-0.229 0.463-0.343 0.756-0.343 0.319 0 0.605 0.131 0.856 0.391 0.253 0.259 0.378 0.549 0.378 0.869" clip-path="url(#ah)" fill="#231F20"/>
	<defs>
		<rect id="am" width="201.32" height="63.782"/>
	</defs>
	<clipPath id="ag">
		<use overflow="visible" xlink:href="#am"/>
	</clipPath>
	<path d="m127.27 16.442h-2.749v-7.192c0-1.403-0.661-2.106-1.988-2.106-0.613 0-1.299 0.189-2.064 0.571 0.06 0.311 0.09 0.76 0.09 1.352v7.375h-2.746v-7.212c0-1.39-0.655-2.086-1.969-2.086-0.672 0-1.349 0.161-2.036 0.481 0.03 0.232 0.044 0.4 0.044 0.507v8.31h-2.748v-9.07c0-0.301-0.043-0.799-0.14-1.488 2.003-0.764 3.723-1.145 5.155-1.145 1.586 0 2.724 0.355 3.411 1.053 1.265-0.698 2.541-1.053 3.824-1.053 1.237 0 2.2 0.351 2.884 1.042 0.688 0.696 1.033 1.671 1.033 2.92" clip-path="url(#ag)" fill="#231F20"/>
	<defs>
		<rect id="an" width="201.32" height="63.782"/>
	</defs>
	<clipPath id="af">
		<use overflow="visible" xlink:href="#an"/>
	</clipPath>
	<path d="m138.45 15.802c-1.955 0.594-3.581 0.89-4.881 0.89-1.342 0-2.471-0.242-3.386-0.73-1.159-0.628-1.742-1.544-1.742-2.749 0-1.328 0.611-2.3 1.831-2.909 0.489-0.244 1.635-0.564 3.437-0.962 1.221-0.275 1.832-0.662 1.832-1.167 0-0.7-0.641-1.056-1.922-1.056-1.054 0-2.115 0.231-3.184 0.69l-0.941-2.086c1.439-0.655 2.942-0.983 4.514-0.983 1.297 0 2.32 0.29 3.066 0.873 0.807 0.638 1.215 1.595 1.215 2.862v5.886c-1e-3 0.289 0.052 0.769 0.161 1.441m-2.863-1.719c-0.033-0.199-0.047-0.344-0.047-0.435v-2.816c-0.229 0.231-0.714 0.428-1.467 0.597-0.929 0.216-1.515 0.371-1.76 0.479-0.567 0.262-0.85 0.626-0.85 1.102 0 0.93 0.708 1.392 2.13 1.392 0.66-2e-3 1.32-0.107 1.994-0.319" clip-path="url(#af)" fill="#231F20"/>
	<defs>
		<rect id="ao" width="201.32" height="63.782"/>
	</defs>
	<clipPath id="ae">
		<use overflow="visible" xlink:href="#ao"/>
	</clipPath>
	<path d="m147.4 4.992l-0.823 2.358c-0.49-0.155-0.992-0.231-1.512-0.231-0.731 0-1.418 0.101-2.061 0.301 0.016 0.107 0.021 0.183 0.021 0.227v8.795h-2.746v-8.728c0-0.349-0.067-0.918-0.207-1.717 2.016-0.837 3.756-1.258 5.223-1.258 0.766 0 1.463 0.087 2.105 0.253" clip-path="url(#ae)" fill="#231F20"/>
	<defs>
		<rect id="ap" width="201.32" height="63.782"/>
	</defs>
	<clipPath id="ad">
		<use overflow="visible" xlink:href="#ap"/>
	</clipPath>
	<path d="m156.49 15.802c-1.954 0.594-3.582 0.89-4.875 0.89-1.346 0-2.478-0.242-3.392-0.73-1.159-0.628-1.737-1.544-1.737-2.749 0-1.328 0.605-2.3 1.828-2.909 0.49-0.244 1.635-0.564 3.438-0.962 1.221-0.275 1.828-0.662 1.828-1.167 0-0.7-0.639-1.056-1.92-1.056-1.057 0-2.119 0.231-3.186 0.69l-0.936-2.086c1.43-0.655 2.936-0.983 4.508-0.983 1.295 0 2.32 0.29 3.07 0.873 0.807 0.638 1.214 1.595 1.214 2.862v5.886c2e-3 0.289 0.055 0.769 0.16 1.441m-2.865-1.719c-0.031-0.199-0.045-0.344-0.045-0.435v-2.816c-0.227 0.231-0.717 0.428-1.46 0.597-0.937 0.216-1.524 0.371-1.769 0.479-0.563 0.262-0.85 0.626-0.85 1.102 0 0.93 0.713 1.392 2.135 1.392 0.655-2e-3 1.317-0.107 1.989-0.319" clip-path="url(#ad)" fill="#231F20"/>
	<defs>
		<rect id="aq" width="201.32" height="63.782"/>
	</defs>
	<clipPath id="ac">
		<use overflow="visible" xlink:href="#aq"/>
	</clipPath>
	<path d="m97.043 36.79c-1.557 0.565-3.036 0.847-4.44 0.847-1.818 0-3.314-0.575-4.486-1.727-1.176-1.152-1.765-2.632-1.765-4.431 0-1.602 0.442-2.946 1.328-4.03 0.961-1.176 2.268-1.766 3.916-1.766 0.93 0 1.788 0.207 2.563 0.622v-5.726h2.751v14.679c-1e-3 0.305 0.045 0.815 0.133 1.532m-2.838-1.738c-0.031-0.215-0.046-0.367-0.046-0.459v-5.979c-0.469-0.363-1.1-0.549-1.877-0.549-0.973 0-1.717 0.353-2.22 1.051-0.428 0.629-0.643 1.462-0.643 2.499 0 1.084 0.259 1.948 0.78 2.589 0.564 0.7 1.372 1.053 2.43 1.053 0.683 0 1.21-0.068 1.576-0.205" clip-path="url(#ac)" fill="#231F20"/>
	<defs>
		<rect id="ar" width="201.32" height="63.782"/>
	</defs>
	<clipPath id="ab">
		<use overflow="visible" xlink:href="#ar"/>
	</clipPath>
	<path d="m108.68 31.159c0 0.229-0.056 0.731-0.163 1.51h-7.399c0.185 1.727 1.207 2.588 3.072 2.588 1.053 0 2.024-0.196 2.906-0.596l0.87 2.128c-1.326 0.564-2.639 0.847-3.935 0.847-1.759 0-3.175-0.544-4.25-1.633-1.075-1.096-1.615-2.533-1.615-4.32 0-1.741 0.452-3.151 1.352-4.236 0.963-1.175 2.283-1.765 3.961-1.765 1.622 0 2.902 0.514 3.849 1.535 0.901 0.995 1.352 2.309 1.352 3.942m-2.844-0.642c-0.014-0.747-0.215-1.356-0.594-1.832-0.428-0.489-1.009-0.731-1.739-0.731-0.703 0-1.268 0.246-1.696 0.741-0.428 0.497-0.656 1.104-0.69 1.821h4.719z" clip-path="url(#ab)" fill="#231F20"/>
	<defs>
		<rect id="as" width="201.32" height="63.782"/>
	</defs>
	<clipPath id="aa">
		<use overflow="visible" xlink:href="#as"/>
	</clipPath>
	<path d="m126.28 36.585c-1.404 0.684-2.8 1.03-4.191 1.03-2.365 0-4.292-0.748-5.78-2.246-1.488-1.492-2.232-3.426-2.232-5.792 0-2.352 0.69-4.286 2.068-5.807 1.388-1.515 3.243-2.277 5.582-2.277 1.432 0 2.934 0.354 4.507 1.056l-0.936 2.336c-1.36-0.595-2.566-0.896-3.619-0.896-1.434 0-2.565 0.545-3.389 1.627-0.761 0.979-1.145 2.208-1.145 3.688 0 1.738 0.443 3.128 1.332 4.167 0.943 1.097 2.271 1.649 3.979 1.649 1.042 0 2.069-0.246 3.095-0.733" clip-path="url(#aa)" fill="#231F20"/>
	<defs>
		<rect id="au" width="201.32" height="63.782"/>
	</defs>
	<clipPath id="z">
		<use overflow="visible" xlink:href="#au"/>
	</clipPath>
	<path d="m137.64 31.661c0 1.743-0.527 3.172-1.577 4.293-1.055 1.123-2.445 1.683-4.172 1.683-1.721 0-3.12-0.572-4.188-1.717-1.038-1.098-1.557-2.517-1.557-4.259 0-1.737 0.528-3.17 1.581-4.291 1.055-1.122 2.443-1.686 4.165-1.686 1.727 0 3.117 0.564 4.172 1.686 1.049 1.12 1.576 2.553 1.576 4.291m-3.045 0.025c0-0.991-0.199-1.808-0.595-2.451-0.474-0.778-1.175-1.169-2.109-1.169-0.928 0-1.629 0.385-2.106 1.147-0.395 0.64-0.595 1.467-0.595 2.473 0 1.003 0.199 1.823 0.595 2.45 0.476 0.763 1.178 1.146 2.106 1.146 0.934 0 1.635-0.383 2.109-1.146 0.396-0.627 0.595-1.447 0.595-2.45" clip-path="url(#z)" fill="#231F20"/>
	<defs>
		<rect id="av" width="201.32" height="63.782"/>
	</defs>
	<clipPath id="y">
		<use overflow="visible" xlink:href="#av"/>
	</clipPath>
	<path d="m155.07 37.387h-2.75v-7.193c0-1.402-0.661-2.105-1.994-2.105-0.606 0-1.296 0.191-2.06 0.572 0.061 0.308 0.092 0.758 0.092 1.351v7.375h-2.746v-7.213c0-1.391-0.654-2.085-1.971-2.085-0.67 0-1.35 0.164-2.037 0.483 0.031 0.229 0.043 0.397 0.043 0.502v8.313h-2.745v-9.067c0-0.306-0.046-0.806-0.142-1.49 2.003-0.762 3.719-1.146 5.154-1.146 1.589 0 2.727 0.353 3.412 1.056 1.267-0.704 2.541-1.056 3.824-1.056 1.236 0 2.199 0.349 2.886 1.043 0.688 0.695 1.033 1.669 1.033 2.917" clip-path="url(#y)" fill="#231F20"/>
	<defs>
		<rect id="aw" width="201.32" height="63.782"/>
	</defs>
	<clipPath id="w">
		<use overflow="visible" xlink:href="#aw"/>
	</clipPath>
	<path d="m166.7 31.159c0 0.229-0.051 0.731-0.159 1.51h-7.399c0.184 1.727 1.208 2.588 3.069 2.588 1.056 0 2.021-0.196 2.909-0.596l0.872 2.128c-1.327 0.564-2.642 0.847-3.94 0.847-1.756 0-3.173-0.544-4.247-1.633-1.077-1.096-1.615-2.533-1.615-4.32 0-1.741 0.452-3.151 1.35-4.235 0.962-1.176 2.282-1.766 3.961-1.766 1.619 0 2.9 0.514 3.847 1.535 0.904 0.995 1.352 2.309 1.352 3.942m-2.839-0.642c-0.014-0.747-0.217-1.356-0.595-1.832-0.429-0.489-1.01-0.731-1.743-0.731-0.7 0-1.264 0.246-1.691 0.741-0.431 0.497-0.657 1.104-0.69 1.821h4.719z" clip-path="url(#w)" fill="#231F20"/>
	<defs>
		<rect id="ax" width="201.32" height="63.782"/>
	</defs>
	<clipPath id="v">
		<use overflow="visible" xlink:href="#ax"/>
	</clipPath>
	<path d="m175.22 25.939l-0.823 2.356c-0.489-0.15-0.992-0.23-1.511-0.23-0.733 0-1.42 0.101-2.064 0.297 0.02 0.112 0.026 0.185 0.026 0.229v8.795h-2.748v-8.726c0-0.35-0.071-0.923-0.208-1.717 2.016-0.839 3.756-1.26 5.223-1.26 0.762 1e-3 1.463 0.088 2.105 0.256" clip-path="url(#v)" fill="#231F20"/>
	<defs>
		<rect id="ay" width="201.32" height="63.782"/>
	</defs>
	<clipPath id="u">
		<use overflow="visible" xlink:href="#ay"/>
	</clipPath>
	<path d="m184.06 36.837c-1.19 0.534-2.368 0.8-3.527 0.8-1.786 0-3.271-0.549-4.454-1.651-1.185-1.097-1.775-2.54-1.775-4.326 0-1.767 0.55-3.208 1.661-4.315 1.104-1.108 2.545-1.662 4.316-1.662 1.281 0 2.541 0.267 3.779 0.804l-0.827 2.221c-1.087-0.428-2.014-0.643-2.793-0.643-0.979 0-1.756 0.341-2.337 1.027-0.578 0.673-0.868 1.508-0.868 2.499 0 1.041 0.315 1.912 0.95 2.613 0.632 0.7 1.468 1.053 2.507 1.053 0.686 0 1.543-0.189 2.563-0.572" clip-path="url(#u)" fill="#231F20"/>
	<defs>
		<rect id="az" width="201.32" height="63.782"/>
	</defs>
	<clipPath id="t">
		<use overflow="visible" xlink:href="#az"/>
	</clipPath>
	<path d="m188.66 22.022c0 0.476-0.167 0.857-0.495 1.155-0.327 0.297-0.729 0.451-1.203 0.451s-0.868-0.153-1.178-0.451c-0.314-0.298-0.47-0.679-0.47-1.155 0-0.457 0.155-0.845 0.47-1.157 0.309-0.314 0.703-0.47 1.178-0.47 0.456 0 0.856 0.156 1.19 0.47 0.333 0.313 0.508 0.701 0.508 1.157m-0.277 15.365h-2.748v-11.448h2.748v11.448z" clip-path="url(#t)" fill="#231F20"/>
	<defs>
		<rect id="ba" width="201.32" height="63.782"/>
	</defs>
	<clipPath id="s">
		<use overflow="visible" xlink:href="#ba"/>
	</clipPath>
	<path d="m201.32 31.661c0 1.743-0.526 3.172-1.578 4.293-1.055 1.123-2.444 1.683-4.169 1.683-1.724 0-3.12-0.572-4.191-1.717-1.038-1.098-1.553-2.517-1.553-4.259 0-1.737 0.525-3.17 1.576-4.291 1.055-1.122 2.444-1.686 4.169-1.686 1.724 0 3.113 0.564 4.169 1.686 1.051 1.12 1.577 2.553 1.577 4.291m-3.046 0.025c0-0.991-0.196-1.808-0.594-2.451-0.474-0.778-1.173-1.169-2.107-1.169-0.927 0-1.633 0.385-2.106 1.147-0.399 0.64-0.595 1.467-0.595 2.473 0 1.003 0.195 1.823 0.595 2.45 0.474 0.763 1.18 1.146 2.106 1.146 0.935 0 1.634-0.383 2.107-1.146 0.399-0.627 0.594-1.447 0.594-2.45" clip-path="url(#s)" fill="#231F20"/>
	<defs>
		<rect id="bb" width="201.32" height="63.782"/>
	</defs>
	<clipPath id="r">
		<use overflow="visible" xlink:href="#bb"/>
	</clipPath>
	<path d="m97.043 57.737c-1.557 0.564-3.036 0.848-4.441 0.848-1.817 0-3.313-0.577-4.486-1.733-1.176-1.148-1.765-2.625-1.765-4.426 0-1.602 0.442-2.946 1.328-4.032 0.961-1.176 2.268-1.762 3.916-1.762 0.93 0 1.787 0.203 2.563 0.619v-5.725h2.751l-1e-3 14.678c0 0.307 0.047 0.817 0.135 1.533m-2.838-1.739c-0.031-0.216-0.046-0.367-0.046-0.457v-5.978c-0.469-0.365-1.1-0.55-1.877-0.55-0.973 0-1.717 0.351-2.22 1.052-0.428 0.628-0.642 1.46-0.642 2.495 0 1.087 0.258 1.949 0.78 2.593 0.564 0.699 1.372 1.051 2.43 1.051 0.682 0 1.209-0.067 1.575-0.206" clip-path="url(#r)" fill="#231F20"/>
	<defs>
		<rect id="bc" width="201.32" height="63.782"/>
	</defs>
	<clipPath id="q">
		<use overflow="visible" xlink:href="#bc"/>
	</clipPath>
	<path d="m108.68 52.107c0 0.226-0.056 0.729-0.163 1.507h-7.399c0.185 1.727 1.207 2.59 3.072 2.59 1.053 0 2.024-0.199 2.906-0.594l0.87 2.127c-1.326 0.565-2.639 0.847-3.935 0.847-1.759 0-3.175-0.544-4.25-1.636-1.076-1.092-1.615-2.532-1.615-4.316 0-1.742 0.452-3.152 1.352-4.237 0.963-1.177 2.283-1.761 3.961-1.761 1.622 0 2.902 0.51 3.849 1.531 0.901 0.992 1.352 2.307 1.352 3.942m-2.844-0.644c-0.014-0.746-0.215-1.359-0.594-1.833-0.428-0.486-1.009-0.729-1.739-0.729-0.703 0-1.268 0.248-1.696 0.742-0.428 0.498-0.656 1.104-0.69 1.819h4.719z" clip-path="url(#q)" fill="#231F20"/>
	<defs>
		<rect id="bd" width="201.32" height="63.782"/>
	</defs>
	<clipPath id="p">
		<use overflow="visible" xlink:href="#bd"/>
	</clipPath>
	<path d="m125.35 54.004c0 3.056-2.213 4.581-6.64 4.581-1.206 0-2.519-0.135-3.938-0.411v-15.296c1.588-0.305 2.918-0.458 3.983-0.458 4.016 0 6.023 1.47 6.023 4.415 0 0.739-0.219 1.406-0.652 2.016-0.437 0.615-0.999 1.059-1.681 1.352v0.047c0.901 0.212 1.607 0.66 2.125 1.338 0.519 0.683 0.78 1.485 0.78 2.416m-3.505-7.073c0-0.824-0.304-1.396-0.915-1.719-0.443-0.215-1.122-0.32-2.038-0.32-0.384 0-0.802 0.037-1.258 0.115v4.029h1.4c1.875 0 2.811-0.699 2.811-2.105m0.553 6.869c0-1.526-1.1-2.292-3.297-2.292h-1.468v4.422c0.458 0.075 0.888 0.111 1.283 0.111 2.321 0 3.482-0.745 3.482-2.241" clip-path="url(#p)" fill="#231F20"/>
	<defs>
		<rect id="a" width="201.32" height="63.782"/>
	</defs>
	<clipPath id="o">
		<use overflow="visible" xlink:href="#a"/>
	</clipPath>
	<path d="m137.46 52.608c0 1.743-0.526 3.171-1.579 4.294-1.056 1.12-2.444 1.683-4.169 1.683-1.727 0-3.123-0.571-4.191-1.719-1.037-1.097-1.553-2.514-1.553-4.257 0-1.741 0.524-3.171 1.576-4.292 1.052-1.125 2.441-1.684 4.168-1.684 1.726 0 3.114 0.56 4.169 1.684 1.053 1.121 1.579 2.55 1.579 4.291m-3.046 0.025c0-0.994-0.197-1.809-0.596-2.452-0.473-0.776-1.173-1.167-2.106-1.167s-1.636 0.384-2.105 1.146c-0.398 0.642-0.598 1.467-0.598 2.474 0 1.004 0.2 1.824 0.598 2.45 0.469 0.765 1.172 1.145 2.105 1.145 0.935 0 1.633-0.38 2.106-1.145 0.399-0.628 0.596-1.448 0.596-2.451" clip-path="url(#o)" fill="#231F20"/>
	<defs>
		<rect id="b" width="201.32" height="63.782"/>
	</defs>
	<clipPath id="n">
		<use overflow="visible" xlink:href="#b"/>
	</clipPath>
	<path d="m149.02 60.075c0 1.311-0.652 2.294-1.966 2.954-1.026 0.505-2.27 0.754-3.74 0.754-1.401 0-2.601-0.222-3.591-0.665-1.315-0.609-1.97-1.525-1.97-2.745 0-1.48 0.867-2.48 2.609-2.999-0.304-0.43-0.458-0.85-0.458-1.26 0-0.55 0.271-1.046 0.806-1.488-1.484-0.81-2.222-2.041-2.222-3.69 0-1.328 0.479-2.387 1.439-3.181 0.904-0.75 2.025-1.121 3.369-1.121 0.289 0 0.643 0.039 1.066 0.125 0.419 0.084 0.674 0.126 0.765 0.126h3.894v2.105c-0.609 0.03-1.125-0.036-1.537-0.204l-0.045 0.047c0.443 0.761 0.668 1.465 0.668 2.103 0 1.072-0.322 1.973-0.963 2.701-0.643 0.735-1.488 1.225-2.543 1.471-0.14 0.029-0.638 0.084-1.51 0.158-0.17 0.015-0.346 0.08-0.527 0.195-0.186 0.113-0.273 0.246-0.273 0.4 0 0.383 0.575 0.664 1.738 0.847 1.617 0.242 2.701 0.484 3.25 0.732 1.161 0.519 1.741 1.395 1.741 2.635m-2.793 0.155c0-0.531-0.611-0.936-1.835-1.21-0.851-0.139-1.7-0.278-2.542-0.411-1.054 0.35-1.578 0.907-1.578 1.67 0 0.533 0.396 0.922 1.191 1.169 0.533 0.171 1.158 0.252 1.877 0.252 1.924-1e-3 2.887-0.49 2.887-1.47m-0.759-9.245c0-0.644-0.197-1.14-0.604-1.492-0.406-0.35-0.928-0.525-1.568-0.525-0.644 0-1.166 0.176-1.568 0.525-0.405 0.353-0.611 0.849-0.611 1.492 0 0.641 0.206 1.139 0.611 1.495 0.402 0.362 0.925 0.541 1.568 0.541 0.641 0 1.162-0.179 1.568-0.541 0.405-0.356 0.604-0.854 0.604-1.495" clip-path="url(#n)" fill="#231F20"/>
	<defs>
		<rect id="c" width="201.32" height="63.782"/>
	</defs>
	<clipPath id="l">
		<use overflow="visible" xlink:href="#c"/>
	</clipPath>
	<path d="m160.81 52.608c0 1.743-0.525 3.171-1.576 4.294-1.055 1.12-2.447 1.683-4.167 1.683-1.731 0-3.126-0.571-4.191-1.719-1.042-1.097-1.559-2.514-1.559-4.257 0-1.741 0.526-3.171 1.577-4.292 1.055-1.125 2.441-1.684 4.173-1.684 1.72 0 3.112 0.56 4.167 1.684 1.051 1.121 1.576 2.55 1.576 4.291m-3.043 0.025c0-0.994-0.199-1.809-0.598-2.452-0.475-0.776-1.174-1.167-2.103-1.167-0.935 0-1.638 0.384-2.111 1.146-0.396 0.642-0.592 1.467-0.592 2.474 0 1.004 0.196 1.824 0.592 2.45 0.474 0.765 1.177 1.145 2.111 1.145 0.929 0 1.628-0.38 2.103-1.145 0.399-0.628 0.598-1.448 0.598-2.451" clip-path="url(#l)" fill="#231F20"/>
	<defs>
		<rect id="d" width="201.32" height="63.782"/>
	</defs>
	<clipPath id="k">
		<use overflow="visible" xlink:href="#d"/>
	</clipPath>
	<path d="m169.17 58.104c-1.249 0.426-2.271 0.639-3.068 0.639-2.351 0-3.524-1.058-3.524-3.18v-6.32l-1.306-0.069v-2.172l1.306-0.07v-3.182h2.746v3.137h3.208v2.381h-3.208v6.091c0 0.655 0.352 0.984 1.051 0.984 0.479 0 1.155-0.151 2.04-0.46" clip-path="url(#k)" fill="#231F20"/>
	<defs>
		<rect id="e" width="201.32" height="63.782"/>
	</defs>
	<clipPath id="j">
		<use overflow="visible" xlink:href="#e"/>
	</clipPath>
	<path d="m179.22 57.688c-1.95 0.598-3.581 0.896-4.877 0.896-1.342 0-2.474-0.245-3.386-0.732-1.165-0.625-1.744-1.542-1.744-2.746 0-1.328 0.611-2.298 1.834-2.908 0.49-0.245 1.631-0.566 3.435-0.96 1.22-0.278 1.832-0.668 1.832-1.172 0-0.701-0.642-1.052-1.924-1.052-1.054 0-2.113 0.228-3.183 0.687l-0.94-2.082c1.438-0.656 2.939-0.984 4.51-0.984 1.302 0 2.323 0.291 3.069 0.868 0.808 0.644 1.215 1.599 1.215 2.86v5.888c-2e-3 0.291 0.055 0.77 0.159 1.437m-2.861-1.712c-0.032-0.199-0.046-0.345-0.046-0.435v-2.814c-0.23 0.223-0.718 0.423-1.469 0.589-0.933 0.215-1.519 0.377-1.762 0.484-0.567 0.26-0.848 0.624-0.848 1.1 0 0.928 0.71 1.396 2.128 1.396 0.659-1e-3 1.321-0.106 1.997-0.32m0.344-12.823c0 0.336-0.147 0.604-0.437 0.799l-2.793 1.878-0.985-1.144 2.221-2.45c0.214-0.231 0.464-0.344 0.755-0.344 0.323 0 0.608 0.13 0.858 0.388 0.254 0.26 0.381 0.549 0.381 0.873" clip-path="url(#j)" fill="#231F20"/>
	<defs>
		<rect id="m" width="201.32" height="63.782"/>
	</defs>
	<clipPath id="i">
		<use overflow="visible" xlink:href="#m"/>
	</clipPath>
	<path d="m35.537 16.03c-1.116 3.762-6.44 6.611-12.848 6.611-7.22 0-13.07-3.615-13.07-8.077 0-4.461 5.85-8.078 13.07-8.078 6.408 0 11.732 2.853 12.848 6.612 0.46-2.746 2.205-5.259 4.855-7.302-4.158-3.204-10.544-5.255-17.704-5.255-12.534 1e-3 -22.688 6.279-22.688 14.023s10.154 14.023 22.688 14.023c7.16 0 13.545-2.052 17.704-5.261-2.651-2.037-4.395-4.551-4.855-7.296" clip-path="url(#i)" fill="#C3002F"/>
	<defs>
		<rect id="x" width="201.32" height="63.782"/>
	</defs>
	<clipPath id="h">
		<use overflow="visible" xlink:href="#x"/>
	</clipPath>
	<path d="m35.537 46.099c-1.116 3.762-6.44 6.616-12.848 6.616-7.22 0-13.07-3.618-13.07-8.077 0-4.464 5.85-8.081 13.07-8.081 6.408 0 11.732 2.858 12.848 6.614 0.46-2.746 2.205-5.259 4.855-7.301-4.158-3.205-10.544-5.258-17.704-5.258-12.534-1e-3 -22.688 6.281-22.688 14.026 0 7.744 10.154 14.02 22.688 14.02 7.16 0 13.545-2.051 17.704-5.256-2.651-2.044-4.395-4.557-4.855-7.303" clip-path="url(#h)" fill="#C3002F"/>
	<defs>
		<rect id="ai" width="201.32" height="63.782"/>
	</defs>
	<clipPath id="g">
		<use overflow="visible" xlink:href="#ai"/>
	</clipPath>
	<path d="m46.135 16.03c1.115 3.762 6.44 6.611 12.851 6.611 7.215 0 13.064-3.615 13.064-8.077 0-4.461-5.849-8.078-13.064-8.078-6.41 0-11.735 2.853-12.851 6.612-0.46-2.746-2.205-5.259-4.855-7.302 4.153-3.204 10.542-5.255 17.706-5.255 12.525 0 22.686 6.278 22.686 14.023 0 7.744-10.16 14.023-22.686 14.023-7.164 0-13.553-2.053-17.706-5.261 2.65-2.037 4.394-4.551 4.855-7.296" clip-path="url(#g)" fill="#C3002F"/>
	<defs>
		<rect id="at" width="201.32" height="63.782"/>
	</defs>
	<clipPath id="f">
		<use overflow="visible" xlink:href="#at"/>
	</clipPath>
	<path d="m46.135 46.099c1.115 3.762 6.44 6.616 12.851 6.616 7.215 0 13.064-3.618 13.064-8.077 0-4.464-5.849-8.081-13.064-8.081-6.41 0-11.735 2.858-12.851 6.614-0.46-2.746-2.205-5.259-4.855-7.301 4.153-3.205 10.542-5.258 17.706-5.258 12.525 0 22.686 6.281 22.686 14.024 0 7.744-10.16 14.021-22.686 14.021-7.164 0-13.553-2.051-17.706-5.256 2.65-2.043 4.394-4.556 4.855-7.302" clip-path="url(#f)" fill="#C3002F"/>
</svg>
