<?xml version="1.0" encoding="utf-8"?>
<!-- Generated by IcoMoon.io -->
<!DOCTYPE svg PUBLIC "-//W3C//DTD SVG 1.1//EN" "http://www.w3.org/Graphics/SVG/1.1/DTD/svg11.dtd">
<svg version="1.1" xmlns="http://www.w3.org/2000/svg" xmlns:xlink="http://www.w3.org/1999/xlink" width="24" height="24" viewBox="0 0 24 24">
<path fill="rgb(255, 255, 255)" d="M22.085 12.263c0 5.57-4.515 10.085-10.085 10.085s-10.085-4.515-10.085-10.085 4.515-10.085 10.085-10.085 10.085 4.516 10.085 10.085z"></path>
<path fill="rgb(232, 66, 57)" d="M14.482 8.619l-2.499 2.5-2.466-2.467c-0.313-0.311-0.818-0.311-1.131 0l-0.015 0.015c-0.312 0.312-0.312 0.818 0 1.131l2.466 2.466-2.466 2.466c-0.312 0.312-0.312 0.817 0 1.13l0.015 0.014c0.312 0.313 0.818 0.313 1.131 0l2.466-2.465 2.499 2.499c0.313 0.311 0.818 0.311 1.13 0l0.015-0.015c0.312-0.313 0.312-0.818 0-1.13l-2.5-2.5 2.5-2.5c0.312-0.312 0.312-0.818 0-1.13l-0.015-0.015c-0.311-0.313-0.817-0.313-1.13 0z"></path>
</svg>
