<?xml version="1.0" encoding="utf-8"?>
<!-- Generated by IcoMoon.io -->
<!DOCTYPE svg PUBLIC "-//W3C//DTD SVG 1.1//EN" "http://www.w3.org/Graphics/SVG/1.1/DTD/svg11.dtd">
<svg version="1.1" xmlns="http://www.w3.org/2000/svg" xmlns:xlink="http://www.w3.org/1999/xlink" width="24" height="24" viewBox="0 0 24 24">
<path fill="#bababc" d="M20.956 20.141h-17.911c-0.839 0-1.608-0.461-2.004-1.202s-0.352-1.636 0.115-2.335l8.955-13.389c0.423-0.632 1.129-1.009 1.889-1.009s1.467 0.377 1.889 1.009l8.955 13.389c0.467 0.699 0.511 1.594 0.115 2.335-0.395 0.742-1.164 1.203-2.004 1.203zM12 3.722c-0.254 0-0.489 0.126-0.631 0.337l-8.955 13.388c-0.155 0.233-0.17 0.531-0.039 0.778 0.133 0.247 0.389 0.401 0.668 0.401h17.911c0.28 0 0.536-0.154 0.668-0.401s0.117-0.545-0.039-0.778l-8.956-13.388c-0.141-0.211-0.377-0.337-0.63-0.337z"></path>
<path fill="#bababc" d="M12.641 13.782h-1.283l-0.347-6.389h1.978l-0.347 6.389zM11.078 15.145h1.844v1.899h-1.844v-1.899z"></path>
</svg>
