<?xml version="1.0" encoding="utf-8"?>
<!-- Generated by IcoMoon.io -->
<!DOCTYPE svg PUBLIC "-//W3C//DTD SVG 1.1//EN" "http://www.w3.org/Graphics/SVG/1.1/DTD/svg11.dtd">
<svg version="1.1" xmlns="http://www.w3.org/2000/svg" xmlns:xlink="http://www.w3.org/1999/xlink" width="24" height="24" viewBox="0 0 24 24">
<path fill="#bababc" d="M12.015 22.734c-5.777 0-10.477-4.7-10.477-10.477s4.7-10.477 10.477-10.477 10.477 4.7 10.477 10.477c0 5.776-4.7 10.477-10.477 10.477zM12.015 2.563c-5.345 0-9.694 4.349-9.694 9.694s4.349 9.694 9.694 9.694c5.346 0 9.694-4.349 9.694-9.694s-4.348-9.694-9.694-9.694z"></path>
<path fill="#bababc" d="M14.265 8.923l-2.185 2.185-2.156-2.155c-0.273-0.273-0.715-0.273-0.988 0l-0.014 0.012c-0.273 0.273-0.273 0.715 0 0.989l2.156 2.155-2.156 2.156c-0.273 0.273-0.273 0.715 0 0.989l0.014 0.013c0.272 0.272 0.715 0.272 0.988 0l2.156-2.157 2.185 2.186c0.273 0.273 0.716 0.273 0.989 0l0.013-0.013c0.272-0.272 0.272-0.715 0-0.988l-2.185-2.186 2.185-2.186c0.272-0.272 0.272-0.715 0-0.989l-0.013-0.012c-0.273-0.273-0.716-0.273-0.989 0z"></path>
</svg>
