<?xml version="1.0" encoding="utf-8"?>
<!-- Generated by IcoMoon.io -->
<!DOCTYPE svg PUBLIC "-//W3C//DTD SVG 1.1//EN" "http://www.w3.org/Graphics/SVG/1.1/DTD/svg11.dtd">
<svg version="1.1" xmlns="http://www.w3.org/2000/svg" xmlns:xlink="http://www.w3.org/1999/xlink" width="24" height="24" viewBox="0 0 24 24">
<path fill="#bababc" d="M11.958 22.624c-5.777 0-10.477-4.7-10.477-10.477s4.7-10.477 10.477-10.477 10.477 4.7 10.477 10.477c0 5.776-4.7 10.477-10.477 10.477zM11.958 2.453c-5.345 0-9.694 4.349-9.694 9.694s4.349 9.694 9.694 9.694c5.346 0 9.694-4.349 9.694-9.694s-4.348-9.694-9.694-9.694z"></path>
<path fill="#bababc" d="M18.141 8.698l-3.33-3.074-6.994 7.578-0.999 4.423 4.33-1.349 6.993-7.578zM13.54 7.95l1.309-1.415 2.384 2.2-1.308 1.418-2.385-2.203zM7.918 15.671l0.384-1.7 2.039 1.883-1.664 0.519-0.759-0.701zM15.489 10.626l-4.538 4.915-2.385-2.202 4.537-4.914 2.386 2.202z"></path>
</svg>
