<?xml version="1.0" encoding="utf-8"?>
<!-- Generated by IcoMoon.io -->
<!DOCTYPE svg PUBLIC "-//W3C//DTD SVG 1.1//EN" "http://www.w3.org/Graphics/SVG/1.1/DTD/svg11.dtd">
<svg version="1.1" xmlns="http://www.w3.org/2000/svg" xmlns:xlink="http://www.w3.org/1999/xlink" width="24" height="24" viewBox="0 0 24 24">
<path fill="rgb(21, 57, 96)" d="M22.085 12c0 5.57-4.515 10.085-10.085 10.085s-10.085-4.515-10.085-10.085 4.515-10.085 10.085-10.085 10.085 4.515 10.085 10.085z"></path>
<path fill="rgb(255, 255, 255)" d="M12.042 6.522c0.914 0 1.74 0.403 2.481 1.21 0.52 0.65 0.777 1.36 0.777 2.132 0 0.96-0.431 1.815-1.294 2.566-0.887 0.488-1.331 1.201-1.331 2.14-0.057 0.38-0.247 0.571-0.573 0.571-0.364-0.081-0.547-0.244-0.547-0.487v-0.229c0-1.198 0.634-2.188 1.903-2.969 0.476-0.472 0.716-1.031 0.716-1.675 0-0.817-0.432-1.469-1.295-1.957-0.385-0.117-0.692-0.175-0.921-0.175-0.848 0-1.511 0.452-1.987 1.355l-0.206 0.982c-0.163 0.208-0.326 0.312-0.489 0.312-0.385-0.081-0.578-0.265-0.578-0.548 0-1.036 0.511-1.939 1.53-2.71 0.625-0.346 1.229-0.519 1.813-0.519zM12.011 15.924h0.122c0.334 0 0.574 0.211 0.715 0.632v0.198c-0.092 0.483-0.361 0.724-0.807 0.724-0.497-0.106-0.746-0.356-0.746-0.747 0.001-0.441 0.238-0.711 0.715-0.808z"></path>
</svg>
