<?xml version="1.0" encoding="UTF-8" standalone="no"?>
<svg width="57px" height="76px" viewBox="0 0 57 76" version="1.1" xmlns="http://www.w3.org/2000/svg" xmlns:xlink="http://www.w3.org/1999/xlink" xmlns:sketch="http://www.bohemiancoding.com/sketch/ns">
    <!-- Generator: Sketch 3.4.4 (17249) - http://www.bohemiancoding.com/sketch -->
    <title>Shape</title>
    <desc>Created with Sketch.</desc>
    <defs></defs>
    <g id="Page-1" stroke="none" stroke-width="1" fill="none" fill-rule="evenodd" sketch:type="MSPage">
        <g id="iconos" sketch:type="MSLayerGroup" fill="#163A63">
            <path d="M56.899,19.009 L36.201,0 L0.459,0 L0.459,66.228 L24.29,66.228 L24.29,75.417 L31.431,69.272 L38.745,75.417 L38.745,66.228 L56.899,66.228 L56.899,19.009 L56.899,19.009 Z M38.069,9.862 L46.197,17.327 L38.069,17.327 L38.069,9.862 L38.069,9.862 Z M38.745,60.228 L38.745,55.241 C43.573,52.652 46.866,47.558 46.866,41.707 C46.866,33.244 39.98,26.358 31.517,26.358 C23.053,26.358 16.167,33.243 16.167,41.707 C16.167,47.559 19.46,52.652 24.289,55.241 L24.289,60.228 L6.458,60.228 L6.458,6 L32.068,6 L32.068,23.327 L50.898,23.327 L50.898,60.227 L38.745,60.227 L38.745,60.228 Z M31.518,51.056 C26.363,51.056 22.168,46.862 22.168,41.706 C22.168,36.551 26.362,32.357 31.518,32.357 C36.674,32.357 40.867,36.551 40.867,41.706 C40.866,46.861 36.673,51.056 31.518,51.056 L31.518,51.056 Z" id="Shape" sketch:type="MSShapeGroup"></path>
        </g>
    </g>
</svg>