<?xml version="1.0" encoding="UTF-8" standalone="no"?>
<svg width="57px" height="56px" viewBox="0 0 57 56" version="1.1" xmlns="http://www.w3.org/2000/svg" xmlns:xlink="http://www.w3.org/1999/xlink" xmlns:sketch="http://www.bohemiancoding.com/sketch/ns">
    <!-- Generator: Sketch 3.4.4 (17249) - http://www.bohemiancoding.com/sketch -->
    <title>Shape</title>
    <desc>Created with Sketch.</desc>
    <defs></defs>
    <g id="Page-1" stroke="none" stroke-width="1" fill="none" fill-rule="evenodd" sketch:type="MSPage">
        <g id="iconos" sketch:type="MSLayerGroup" transform="translate(-266.000000, 0.000000)" fill="#163A63">
            <path d="M322.395,52.116 L310.44,40.16 C314.023,35.78 315.973,30.346 315.973,24.612 C315.97,18.038 313.411,11.857 308.762,7.208 C304.113,2.56 297.932,-1.13686838e-13 291.358,-1.13686838e-13 C284.787,-1.13686838e-13 278.606,2.56 273.957,7.208 C269.309,11.857 266.749,18.038 266.749,24.612 C266.749,31.186 269.309,37.367 273.957,42.016 C278.606,46.664 284.787,49.224 291.358,49.224 C297.092,49.224 302.526,47.276 306.906,43.694 L318.862,55.649 L322.395,52.116 L322.395,52.116 Z M277.49,38.482 C273.785,34.778 271.745,29.851 271.745,24.612 C271.745,19.373 273.785,14.446 277.49,10.742 C281.194,7.038 286.121,4.997 291.357,4.997 C296.596,4.997 301.523,7.038 305.227,10.742 C308.931,14.446 310.974,19.373 310.974,24.612 C310.974,29.851 308.934,34.778 305.227,38.482 C301.523,42.186 296.596,44.227 291.357,44.227 C286.121,44.228 281.194,42.187 277.49,38.482 L277.49,38.482 Z" id="Shape" sketch:type="MSShapeGroup"></path>
        </g>
    </g>
</svg>