<?xml version="1.0" encoding="utf-8"?>
<!-- Generator: Adobe Illustrator 15.0.0, SVG Export Plug-In . SVG Version: 6.00 Build 0)  -->
<!DOCTYPE svg PUBLIC "-//W3C//DTD SVG 1.1//EN" "http://www.w3.org/Graphics/SVG/1.1/DTD/svg11.dtd">
<svg version="1.1" id="icon-status-ready" xmlns="http://www.w3.org/2000/svg" xmlns:xlink="http://www.w3.org/1999/xlink" x="0px"
	 y="0px" width="24px" height="24px" viewBox="0 0 24 24" enable-background="new 0 0 24 24" xml:space="preserve">
<path fill="#BABABC" d="M653.3,8453.699H644.9v-8.398h-1.2v8.398h-8.4v1.201h8.4v8.4h1.2v-8.4h8.399V8453.699z"/>
<path fill="#FFFFFF" d="M321.585,7790.764c0,5.569-4.515,10.084-10.085,10.084s-10.085-4.515-10.085-10.084
	c0-5.57,4.515-10.086,10.085-10.086S321.585,7785.193,321.585,7790.764z"/>
<path fill="#E84239" d="M313.982,7787.119l-2.5,2.5l-2.465-2.467c-0.313-0.312-0.818-0.312-1.131,0l-0.016,0.015
	c-0.312,0.312-0.312,0.817,0,1.131l2.466,2.466l-2.466,2.467c-0.312,0.312-0.312,0.816,0,1.129l0.016,0.015
	c0.312,0.313,0.817,0.313,1.131,0l2.465-2.465l2.5,2.499c0.312,0.311,0.817,0.311,1.129,0l0.016-0.016
	c0.312-0.312,0.312-0.817,0-1.129l-2.5-2.5l2.5-2.5c0.312-0.312,0.312-0.818,0-1.131l-0.016-0.015
	C314.801,7786.805,314.295,7786.805,313.982,7787.119L313.982,7787.119z"/>
<path fill="#FDE9E9" d="M401.585,7750.816c0,5.569-4.515,10.084-10.085,10.084s-10.085-4.515-10.085-10.084
	c0-5.57,4.515-10.086,10.085-10.086S401.585,7745.247,401.585,7750.816z"/>
<path fill="#E84239" d="M393.982,7747.172l-2.5,2.5l-2.465-2.467c-0.313-0.311-0.818-0.311-1.131,0l-0.016,0.016
	c-0.312,0.312-0.312,0.817,0,1.131l2.466,2.465l-2.466,2.466c-0.312,0.312-0.312,0.817,0,1.13l0.016,0.014
	c0.312,0.313,0.817,0.313,1.131,0l2.465-2.465l2.5,2.5c0.312,0.311,0.817,0.311,1.129,0l0.016-0.016
	c0.312-0.312,0.312-0.817,0-1.129l-2.5-2.5l2.5-2.5c0.312-0.312,0.312-0.818,0-1.131l-0.016-0.015
	C394.801,7746.859,394.295,7746.859,393.982,7747.172z"/>
<path fill="#BABABC" d="M226.456,7374.641h-17.911c-0.839,0-1.607-0.461-2.004-1.201c-0.396-0.741-0.352-1.637,0.115-2.336
	l8.955-13.389c0.423-0.632,1.129-1.009,1.889-1.009s1.467,0.377,1.889,1.009l8.955,13.389c0.467,0.699,0.512,1.595,0.115,2.336
	c-0.395,0.742-1.164,1.203-2.004,1.203L226.456,7374.641z M217.5,7358.223c-0.254,0-0.488,0.125-0.631,0.336l-8.955,13.389
	c-0.155,0.232-0.17,0.531-0.039,0.777c0.133,0.248,0.389,0.401,0.668,0.401h17.911c0.28,0,0.536-0.153,0.668-0.401
	c0.132-0.246,0.116-0.545-0.039-0.777l-8.956-13.389c-0.141-0.211-0.377-0.336-0.63-0.336H217.5z"/>
<path fill="#BABABC" d="M218.141,7368.282h-1.283l-0.346-6.39h1.977l-0.346,6.39H218.141z M216.578,7369.645h1.844v1.899h-1.844
	V7369.645z"/>
<path fill="#FFFFFF" d="M93.585,6982.225c0,5.57-4.515,10.086-10.085,10.086s-10.085-4.516-10.085-10.086
	s4.515-10.084,10.085-10.084S93.585,6976.654,93.585,6982.225z"/>
<path fill="#153960" d="M83.348,6987.404h1.596l-0.475-5.424h-1.939l-0.475,5.424H83.348z"/>
<path fill="#153960" d="M81.834,6978.711c0-0.92,0.747-1.665,1.665-1.665c0.92,0,1.665,0.745,1.665,1.665s-0.746,1.665-1.665,1.665
	S81.834,6979.631,81.834,6978.711z"/>
<path fill="#153960" d="M-0.271,6598.787c0,5.57-4.516,10.085-10.086,10.085c-5.569,0-10.084-4.515-10.084-10.085
	s4.515-10.085,10.084-10.085C-4.787,6588.702-0.271,6593.217-0.271,6598.787z"/>
<path fill="#FFFFFF" d="M-10.509,6603.967h1.596l-0.474-5.424h-1.94l-0.474,5.424H-10.509z"/>
<path fill="#FFFFFF" d="M-12.021,6595.273c0-0.92,0.746-1.664,1.664-1.664c0.92,0,1.666,0.744,1.666,1.664s-0.746,1.666-1.666,1.666
	C-11.275,6596.939-12.021,6596.193-12.021,6595.273z"/>
<path fill="#FFFFFF" d="M-54.415,6214.279c0,5.57-4.515,10.085-10.085,10.085s-10.085-4.517-10.085-10.085
	c0-5.569,4.515-10.086,10.085-10.086S-54.415,6208.709-54.415,6214.279z"/>
<path fill="#48AE4D" d="M-65.936,6218.975l-4.571-3.869l1.638-1.935l2.77,2.345l5.793-5.933l1.813,1.772L-65.936,6218.975z"/>
<path fill="#E2EFE2" d="M-68.415,5831.021c0,5.57-4.515,10.086-10.085,10.086c-5.57,0-10.085-4.516-10.085-10.086
	c0-5.569,4.515-10.084,10.085-10.084C-72.93,5820.938-68.415,5825.452-68.415,5831.021z"/>
<path fill="#48AE4D" d="M-79.936,5835.717l-4.571-3.867l1.638-1.936l2.77,2.344l5.793-5.932l1.813,1.771L-79.936,5835.717z"/>
<path fill="#FFFFFF" d="M-62.585,5446.539c0-5.57,4.515-10.085,10.085-10.085s10.085,4.515,10.085,10.085
	s-4.515,10.085-10.085,10.085C-58.071,5456.624-62.585,5452.107-62.585,5446.539z"/>
<path fill="#F1B304" d="M-52.348,5441.359h-1.597l0.475,5.423h1.939l0.475-5.423H-52.348z"/>
<path fill="#F1B304" d="M-50.835,5450.052c0,0.921-0.747,1.665-1.665,1.665c-0.92,0-1.665-0.744-1.665-1.665
	c0-0.92,0.746-1.665,1.665-1.665S-50.835,5449.132-50.835,5450.052z"/>
<path fill="#FEF8E6" d="M3.415,5062.725c0-5.57,4.515-10.084,10.085-10.084s10.085,4.514,10.085,10.084s-4.515,10.086-10.085,10.086
	C7.929,5072.811,3.415,5068.295,3.415,5062.725z"/>
<path fill="#F1B304" d="M13.652,5057.547h-1.597l0.475,5.424h1.939l0.475-5.424H13.652z"/>
<path fill="#F1B304" d="M15.165,5066.239c0,0.92-0.747,1.665-1.665,1.665c-0.92,0-1.665-0.745-1.665-1.665
	c0-0.921,0.746-1.665,1.665-1.665C14.419,5064.573,15.165,5065.318,15.165,5066.239z"/>
<path fill="#BABABC" d="M115.017,4689.479c-0.103,0-0.201-0.037-0.277-0.115c-0.152-0.152-0.152-0.401,0-0.553l10.312-10.311
	l-10.312-10.309c-0.152-0.152-0.152-0.4,0-0.553c0.151-0.154,0.4-0.154,0.554,0l10.862,10.861l-10.862,10.864
	C115.215,4689.441,115.116,4689.479,115.017,4689.479L115.017,4689.479z"/>
<path fill="#BABABC" d="M265.515,4305.234c-5.776,0-10.477-4.7-10.477-10.478c0-5.776,4.7-10.478,10.477-10.478
	c5.777,0,10.478,4.701,10.478,10.478S271.292,4305.234,265.515,4305.234z M265.515,4285.062c-5.345,0-9.693,4.35-9.693,9.694
	s4.349,9.694,9.693,9.694c5.347,0,9.694-4.35,9.694-9.694S270.861,4285.062,265.515,4285.062z"/>
<path fill="#BABABC" d="M267.765,4291.423l-2.185,2.185l-2.156-2.154c-0.272-0.273-0.715-0.273-0.988,0l-0.014,0.012
	c-0.272,0.273-0.272,0.715,0,0.989l2.156,2.155l-2.156,2.156c-0.272,0.272-0.272,0.715,0,0.988l0.014,0.014
	c0.272,0.271,0.716,0.271,0.988,0l2.156-2.158l2.185,2.187c0.273,0.272,0.717,0.272,0.989,0l0.013-0.013
	c0.272-0.272,0.272-0.715,0-0.988l-2.185-2.186l2.185-2.187c0.272-0.272,0.272-0.715,0-0.989l-0.013-0.012
	C268.481,4291.148,268.038,4291.148,267.765,4291.423L267.765,4291.423z"/>
<path fill="#BABABC" d="M451.458,3921.124c-5.777,0-10.477-4.7-10.477-10.478c0-5.776,4.699-10.477,10.477-10.477
	s10.477,4.7,10.477,10.477S457.235,3921.124,451.458,3921.124z M451.458,3900.953c-5.345,0-9.694,4.349-9.694,9.693
	c0,5.346,4.35,9.694,9.694,9.694c5.346,0,9.694-4.349,9.694-9.694C461.152,3905.302,456.804,3900.953,451.458,3900.953z"/>
<path fill="#BABABC" d="M457.641,3907.198l-3.33-3.074l-6.993,7.578l-0.999,4.423l4.33-1.35L457.641,3907.198z M453.04,3906.45
	l1.309-1.415l2.385,2.199l-1.309,1.418L453.04,3906.45z M447.418,3914.171l0.384-1.7l2.039,1.883l-1.664,0.52L447.418,3914.171
	L447.418,3914.171z M454.989,3909.126l-4.538,4.915l-2.385-2.202l4.536-4.914L454.989,3909.126L454.989,3909.126z"/>
<path fill="#BABABC" d="M686.368,3521.751l-5.405-4.987l-11.35,12.295l-1.622,7.178l7.025-2.188L686.368,3521.751z
	 M678.899,3520.538l2.123-2.302l3.87,3.574l-2.125,2.299L678.899,3520.538L678.899,3520.538z M669.777,3533.066l0.623-2.76
	l3.31,3.055l-2.701,0.843L669.777,3533.066z M682.062,3524.877l-7.362,7.977l-3.871-3.574l7.362-7.975L682.062,3524.877
	L682.062,3524.877z"/>
<path fill="#153960" d="M953.585,3142.5c0,5.57-4.515,10.085-10.085,10.085s-10.085-4.515-10.085-10.085s4.515-10.085,10.085-10.085
	S953.585,3136.93,953.585,3142.5z"/>
<path fill="#FFFFFF" d="M943.542,3137.021c0.914,0,1.74,0.403,2.481,1.211c0.52,0.649,0.776,1.359,0.776,2.132
	c0,0.96-0.431,1.815-1.294,2.565c-0.887,0.488-1.331,1.201-1.331,2.141c-0.057,0.38-0.247,0.57-0.573,0.57
	c-0.363-0.08-0.547-0.244-0.547-0.486v-0.229c0-1.198,0.635-2.188,1.903-2.969c0.476-0.472,0.716-1.031,0.716-1.675
	c0-0.817-0.432-1.469-1.295-1.957c-0.385-0.117-0.691-0.176-0.921-0.176c-0.848,0-1.511,0.453-1.987,1.355l-0.206,0.982
	c-0.163,0.207-0.325,0.312-0.488,0.312c-0.386-0.081-0.578-0.265-0.578-0.548c0-1.036,0.511-1.939,1.529-2.71
	C942.353,3137.193,942.957,3137.021,943.542,3137.021L943.542,3137.021z M943.511,3146.424h0.122c0.334,0,0.574,0.211,0.715,0.633
	v0.197c-0.092,0.482-0.36,0.725-0.807,0.725c-0.497-0.106-0.746-0.356-0.746-0.748
	C942.796,3146.79,943.033,3146.52,943.511,3146.424L943.511,3146.424z"/>
<path fill="#BABABC" d="M1259.368,2758.646c0,5.569-4.516,10.086-10.085,10.086c-5.57,0-10.085-4.516-10.085-10.086
	s4.515-10.086,10.085-10.086C1254.853,2748.561,1259.368,2753.076,1259.368,2758.646z"/>
<path fill="#BABABC" d="M965.585,2414.646c0,5.569-4.515,10.086-10.085,10.086s-10.085-4.517-10.085-10.086
	c0-5.57,4.515-10.086,10.085-10.086S965.585,2409.076,965.585,2414.646z"/>
<path fill="#A8D2A2" d="M711.585,2070.5c0,5.57-4.515,10.085-10.085,10.085s-10.085-4.515-10.085-10.085s4.515-10.085,10.085-10.085
	S711.585,2064.932,711.585,2070.5z"/>
<path fill="#48AE4D" d="M706.457,2070.5c0,2.736-2.219,4.957-4.957,4.957s-4.957-2.219-4.957-4.957c0-2.736,2.219-4.957,4.957-4.957
	S706.457,2067.762,706.457,2070.5z"/>
<path fill="#BABABC" d="M497.585,1726.5c0,5.57-4.515,10.085-10.085,10.085s-10.085-4.515-10.085-10.085s4.515-10.085,10.085-10.085
	S497.585,1720.93,497.585,1726.5z"/>
<path fill="#48AE4D" d="M323.585,1382.639c0,5.569-4.515,10.084-10.085,10.084s-10.085-4.515-10.085-10.084
	c0-5.57,4.515-10.087,10.085-10.087C319.07,1372.553,323.585,1377.068,323.585,1382.639z"/>
<path fill="#FFFFFF" d="M312.062,1387.334l-4.569-3.868l1.638-1.935l2.77,2.344l5.793-5.932l1.813,1.771L312.062,1387.334z"/>
<path fill="#BABABC" d="M178.604,1039.386l0.08,0.29l-4.127,4.691l2.063,1.604l2.899-5.431h0.316l2.896,5.512l2.144-1.729
	l-4.208-4.361l0.119-0.328l5.913-1.276l-0.992-2.756l-5.239,2.838l-0.277-0.244l0.716-6.131h-2.661l0.874,6.213l-0.239,0.164
	l-5.436-2.674l-0.715,2.674L178.604,1039.386z"/>
<path fill="#BABABC" d="M95.585,694.871c0,5.57-4.515,10.085-10.085,10.085s-10.085-4.515-10.085-10.085s4.515-10.086,10.085-10.086
	S95.585,689.301,95.585,694.871z"/>
<path fill="#BABABC" d="M41.585,350.5c0,5.57-4.515,10.085-10.085,10.085S21.415,356.07,21.415,350.5s4.515-10.086,10.085-10.086
	S41.585,344.93,41.585,350.5z"/>
<path fill="#BABABC" d="M27.585,6.5c0,5.57-4.515,10.085-10.085,10.085c-5.57,0-10.085-4.515-10.085-10.085S11.93-3.585,17.5-3.585
	C23.07-3.585,27.585,0.93,27.585,6.5z"/>
<path fill="#CA1517" d="M41.611,350.592c0,5.622-4.557,10.179-10.18,10.179c-5.62,0-10.177-4.557-10.177-10.179
	c0-5.621,4.557-10.178,10.177-10.178C37.055,340.414,41.611,344.971,41.611,350.592"/>
<path fill="#F1B204" d="M95.795,694.975c0,5.628-4.562,10.19-10.189,10.19s-10.19-4.562-10.19-10.19
	c0-5.627,4.562-10.189,10.19-10.189S95.795,689.348,95.795,694.975"/>
</svg>
